<svg width="1755" height="1394" viewBox="0 0 1755 1394" fill="none" xmlns="http://www.w3.org/2000/svg">
<g style="mix-blend-mode:darken" filter="url(#filter0_bd)">
<path d="M1092.16 25.6913C1103.41 9.06723 1109.04 0.755219 1117 0.755219C1124.96 0.755219 1130.59 9.06724 1141.84 25.6913L1732.22 897.681C1746.16 918.268 1753.13 928.561 1748.9 936.531C1744.67 944.5 1732.24 944.5 1707.38 944.5H526.62C501.758 944.5 489.328 944.5 485.099 936.531C480.871 928.561 487.84 918.268 501.778 897.681L1092.16 25.6913Z" fill="#EFCECE"/>
<path d="M1141.43 25.9716L1731.81 897.961C1738.79 908.269 1743.99 915.952 1746.92 922.054C1749.86 928.156 1750.46 932.528 1748.46 936.296C1746.46 940.064 1742.5 942.02 1735.8 943.009C1729.11 943.999 1719.83 944 1707.38 944H526.62C514.172 944 504.894 943.999 498.195 943.009C491.497 942.02 487.54 940.064 485.541 936.296C483.542 932.528 484.14 928.156 487.076 922.054C490.013 915.952 495.213 908.269 502.192 897.961L1092.57 25.9716C1098.21 17.646 1102.41 11.4494 1106.18 7.32704C1109.95 3.2123 1113.23 1.25522 1117 1.25522C1120.77 1.25522 1124.05 3.2123 1127.82 7.32705C1131.59 11.4494 1135.79 17.646 1141.43 25.9716Z" stroke="url(#paint0_linear)"/>
</g>
<g filter="url(#filter1_d)">
<circle cx="529" cy="861" r="525" fill="#F5E5E5"/>
</g>
<path d="M114.96 854.78H152.76C167.52 854.78 178.68 857.96 186.24 864.32C193.8 870.56 197.58 878.72 197.58 888.8C197.58 902.48 193.08 912.44 184.08 918.68C175.2 924.92 163.26 928.04 148.26 928.04C144.3 928.04 140.34 927.86 136.38 927.5V968L150.06 969.08C150.54 974.36 148.86 977 145.02 977H109.56C109.56 977 109.56 976.52 109.56 975.56C109.56 972.44 110.4 970.4 112.08 969.44C112.92 969.08 113.94 968.84 115.14 968.72L123.42 968.36V863.78L110.28 862.7C109.92 857.42 111.48 854.78 114.96 854.78ZM146.64 919.58C171.36 919.58 183.72 910.04 183.72 890.96C183.72 870.68 171.18 861.32 146.1 862.88L136.38 863.42V919.22C138.78 919.46 142.2 919.58 146.64 919.58ZM235.341 900.86C238.941 897.02 243.381 893.66 248.661 890.78C254.061 887.78 258.441 886.28 261.801 886.28C265.281 886.28 268.101 887.12 270.261 888.8C272.421 890.36 273.501 892.88 273.501 896.36C273.501 902.6 272.481 906.86 270.441 909.14C268.881 910.46 266.421 911 263.061 910.76C263.061 902.12 260.781 897.8 256.221 897.8C250.461 897.8 243.501 901.88 235.341 910.04V968.54L250.821 969.62C251.301 974.54 249.621 977 245.781 977H209.781V975.56C209.781 972.68 210.621 970.88 212.301 970.16C213.141 969.68 214.161 969.38 215.361 969.26L222.921 968.9V898.52L213.201 897.44C210.561 897.2 209.241 894.74 209.241 890.06L233.541 887L234.801 900.86H235.341ZM320.166 895.64C312.006 895.64 305.706 899.18 301.266 906.26C296.826 913.34 294.606 922.4 294.606 933.44C294.606 944.36 296.766 953.3 301.086 960.26C305.406 967.1 311.646 970.52 319.806 970.52C327.966 970.4 334.266 966.92 338.706 960.08C343.146 953.24 345.366 944.42 345.366 933.62C345.366 922.7 343.206 913.64 338.886 906.44C334.686 899.12 328.446 895.52 320.166 895.64ZM321.246 886.28C330.366 886.28 338.586 889.16 345.906 894.92C349.746 898.04 352.806 902.6 355.086 908.6C357.486 914.6 358.686 921.8 358.686 930.2C358.926 945.08 355.446 957.08 348.246 966.2C341.046 975.2 331.326 979.7 319.086 979.7C306.846 979.7 297.546 975.86 291.186 968.18C284.826 960.5 281.526 949.4 281.286 934.88C281.166 920.36 284.706 908.66 291.906 899.78C299.226 890.78 309.006 886.28 321.246 886.28ZM381.692 856.94C383.372 855.26 385.532 854.42 388.172 854.42C390.812 854.42 392.972 855.26 394.652 856.94C396.332 858.62 397.172 860.78 397.172 863.42C397.172 866.06 396.332 868.22 394.652 869.9C392.972 871.46 390.812 872.24 388.172 872.24C385.532 872.24 383.372 871.46 381.692 869.9C380.132 868.22 379.352 866.06 379.352 863.42C379.352 860.78 380.132 858.62 381.692 856.94ZM395.732 975.38C395.732 988.1 393.392 998.3 388.712 1005.98C384.152 1013.78 377.192 1017.68 367.832 1017.68C364.352 1017.68 361.172 1016.84 358.292 1015.16C355.412 1013.48 353.972 1011.14 353.972 1008.14C353.972 1005.26 354.752 1003.1 356.312 1001.66C357.872 1000.34 359.912 999.74 362.432 999.86C362.672 1005.26 365.492 1007.96 370.892 1007.96C374.972 1007.96 378.032 1006.22 380.072 1002.74C382.232 999.26 383.312 993.08 383.312 984.2V897.62L373.772 896.72C371.012 896.36 369.632 893.84 369.632 889.16L395.732 886.28V975.38ZM487.896 929.66H431.376C431.256 930.86 431.196 932.72 431.196 935.24C431.196 945.44 433.356 953.72 437.676 960.08C441.996 966.32 448.716 969.44 457.836 969.44C466.956 969.44 475.656 966.2 483.936 959.72C485.376 960.92 486.096 962.42 486.096 964.22C486.096 967.58 482.796 971 476.196 974.48C469.716 977.96 462.396 979.7 454.236 979.7C443.076 979.7 434.136 976.04 427.416 968.72C420.816 961.4 417.516 950.24 417.516 935.24C417.516 920.24 421.476 908.36 429.396 899.6C437.316 890.72 446.676 886.28 457.476 886.28C468.276 886.28 476.076 889.7 480.876 896.54C485.676 903.38 488.016 911.54 487.896 921.02V929.66ZM474.756 921.56C474.756 913.52 473.196 907.16 470.076 902.48C466.956 897.68 462.396 895.28 456.396 895.28C450.516 895.28 445.476 897.62 441.276 902.3C437.076 906.98 434.136 913.4 432.456 921.56H474.756ZM542.965 886.28C550.645 886.28 556.705 887.84 561.145 890.96C565.705 894.08 567.985 898.22 567.985 903.38C567.985 909.98 564.625 913.16 557.905 912.92C557.785 908.48 556.225 904.58 553.225 901.22C550.345 897.74 545.965 896 540.085 896C531.565 896 525.025 899.54 520.465 906.62C516.025 913.7 513.805 922.64 513.805 933.44C513.805 942.92 515.665 951.08 519.385 957.92C523.705 965.48 531.145 969.26 541.705 969.26C550.345 969.26 558.565 966.08 566.365 959.72C567.925 960.8 568.705 962.24 568.705 964.04C568.705 967.64 565.285 971.18 558.445 974.66C551.605 978.02 544.285 979.7 536.485 979.7C525.085 979.7 516.265 975.74 510.025 967.82C503.905 959.9 500.725 949.1 500.485 935.42C500.245 921.62 503.905 909.98 511.465 900.5C519.025 891.02 529.525 886.28 542.965 886.28ZM604.192 897.26V950.18C604.192 956.9 604.912 961.76 606.352 964.76C607.912 967.76 610.792 969.26 614.992 969.26C619.312 969.26 622.912 968.78 625.792 967.82C628.672 966.86 632.212 964.7 636.412 961.34C638.572 961.94 639.652 963.74 639.652 966.74C639.652 969.74 636.712 972.68 630.832 975.56C625.072 978.44 619.492 979.88 614.092 979.88C605.692 979.88 599.872 977.48 596.632 972.68C593.392 967.88 591.772 960.92 591.772 951.8V897.26H578.632C578.272 891.74 580.012 888.98 583.852 888.98H591.772V867.56L604.192 864.5V888.98H637.852C638.212 892.94 637.312 895.7 635.152 897.26H604.192ZM649.556 911.48C649.676 903.68 652.856 897.5 659.096 892.94C665.336 888.38 672.116 886.16 679.436 886.28C686.876 886.4 692.996 887.72 697.796 890.24C702.596 892.64 704.936 896.24 704.816 901.04C704.696 904.28 703.556 906.62 701.396 908.06C699.236 909.5 696.896 910.1 694.376 909.86C694.496 905.66 693.176 902.24 690.416 899.6C687.776 896.96 683.876 895.58 678.716 895.46C673.556 895.34 669.236 896.54 665.756 899.06C662.396 901.46 660.656 904.58 660.536 908.42C660.416 912.26 662.096 915.38 665.576 917.78C669.176 920.06 674.216 922.46 680.696 924.98C687.176 927.5 691.556 929.36 693.836 930.56C696.236 931.64 698.816 933.14 701.576 935.06C706.736 938.66 709.196 944.12 708.956 951.44C708.836 958.76 705.656 965.36 699.416 971.24C693.176 977 684.836 979.82 674.396 979.7C666.956 979.46 660.416 977.9 654.776 975.02C649.136 972.02 646.316 967.94 646.316 962.78C646.436 960.02 647.336 957.86 649.016 956.3C650.816 954.62 652.976 953.84 655.496 953.96C656.456 958.88 658.856 962.84 662.696 965.84C666.656 968.84 671.516 970.4 677.276 970.52C683.036 970.52 687.836 969.2 691.676 966.56C695.516 963.8 697.496 960.2 697.616 955.76C697.736 951.32 696.356 947.96 693.476 945.68C690.716 943.4 686.696 941.3 681.416 939.38C676.136 937.34 672.416 935.9 670.256 935.06C668.216 934.22 665.636 932.96 662.516 931.28C659.516 929.6 657.176 927.92 655.496 926.24C651.536 922.04 649.556 917.12 649.556 911.48Z" fill="#443C3C"/>
<path d="M1227.82 833H1209.38V832.232C1209.38 830.568 1209.83 829.48 1210.73 828.968C1211.18 828.776 1211.72 828.648 1212.36 828.584L1216.78 828.392L1211.69 810.824H1191.34L1186.25 828.2L1193.45 828.776C1193.7 831.592 1192.84 833 1190.86 833H1174.06V832.232C1174.06 830.568 1174.5 829.48 1175.4 828.968C1175.85 828.776 1176.39 828.648 1177.03 828.584L1180.87 828.392L1199.4 767.912C1201.45 767.656 1203.53 767.656 1205.64 767.912L1224.17 828.2L1230.41 828.776C1230.66 831.592 1229.8 833 1227.82 833ZM1192.78 806.024H1210.25L1201.61 775.976L1192.78 806.024ZM1246.95 791.432C1251.63 786.888 1256.62 784.616 1261.93 784.616C1267.31 784.616 1271.75 786.568 1275.27 790.472C1278.86 794.376 1280.71 800.264 1280.84 808.136C1281.03 816.008 1279.11 822.376 1275.08 827.24C1271.05 832.04 1265.39 834.44 1258.09 834.44C1254.44 834.44 1250.73 833.608 1246.95 831.944L1240.33 829.448V772.424L1235.34 771.848C1233.8 771.72 1233.03 770.344 1233.03 767.72L1246.95 765.992V791.432ZM1246.95 824.552C1250.41 827.688 1254.57 829.256 1259.43 829.256C1264.36 829.256 1267.98 827.368 1270.28 823.592C1272.59 819.816 1273.74 815.112 1273.74 809.48C1273.74 803.848 1272.59 799.24 1270.28 795.656C1268.04 792.072 1264.55 790.28 1259.82 790.28C1257.45 790.28 1255.34 790.76 1253.48 791.72C1251.63 792.68 1249.45 794.184 1246.95 796.232V824.552ZM1309.04 789.608C1304.69 789.608 1301.33 791.496 1298.96 795.272C1296.59 799.048 1295.41 803.88 1295.41 809.768C1295.41 815.592 1296.56 820.36 1298.87 824.072C1301.17 827.72 1304.5 829.544 1308.85 829.544C1313.2 829.48 1316.56 827.624 1318.93 823.976C1321.3 820.328 1322.48 815.624 1322.48 809.864C1322.48 804.04 1321.33 799.208 1319.03 795.368C1316.79 791.464 1313.46 789.544 1309.04 789.608ZM1309.62 784.616C1314.48 784.616 1318.87 786.152 1322.77 789.224C1324.82 790.888 1326.45 793.32 1327.67 796.52C1328.95 799.72 1329.59 803.56 1329.59 808.04C1329.71 815.976 1327.86 822.376 1324.02 827.24C1320.18 832.04 1314.99 834.44 1308.47 834.44C1301.94 834.44 1296.98 832.392 1293.59 828.296C1290.19 824.2 1288.43 818.28 1288.31 810.536C1288.24 802.792 1290.13 796.552 1293.97 791.816C1297.87 787.016 1303.09 784.616 1309.62 784.616ZM1334.85 788.84C1334.85 786.984 1335.74 786.056 1337.54 786.056H1348.77V814.376C1348.77 819.112 1349.76 822.696 1351.74 825.128C1353.73 827.496 1356.67 828.68 1360.58 828.68C1364.54 828.68 1368.54 826.92 1372.58 823.4V790.568L1365.18 790.088C1364.93 787.4 1365.79 786.056 1367.78 786.056H1379.2V827.528L1383.9 828.008C1385.38 828.136 1386.11 829.512 1386.11 832.136L1374.5 833.096L1373.25 828.008C1368.96 832.296 1364.06 834.44 1358.56 834.44C1354.14 834.44 1350.3 832.872 1347.04 829.736C1343.78 826.6 1342.14 821.672 1342.14 814.952V790.568L1334.85 790.088V788.84ZM1403.9 790.472V818.696C1403.9 822.28 1404.28 824.872 1405.05 826.472C1405.88 828.072 1407.42 828.872 1409.66 828.872C1411.96 828.872 1413.88 828.616 1415.42 828.104C1416.95 827.592 1418.84 826.44 1421.08 824.648C1422.23 824.968 1422.81 825.928 1422.81 827.528C1422.81 829.128 1421.24 830.696 1418.11 832.232C1415.03 833.768 1412.06 834.536 1409.18 834.536C1404.7 834.536 1401.59 833.256 1399.87 830.696C1398.14 828.136 1397.27 824.424 1397.27 819.56V790.472H1390.27C1390.07 787.528 1391 786.056 1393.05 786.056H1397.27V774.632L1403.9 773V786.056H1421.85C1422.04 788.168 1421.56 789.64 1420.41 790.472H1403.9ZM1534.13 833H1515.99V832.232C1515.99 830.696 1516.44 829.736 1517.33 829.352C1517.78 829.096 1518.32 828.936 1518.96 828.872L1522.9 828.68V804.68C1522.9 795.336 1519.12 790.664 1511.57 790.664C1508.95 790.664 1506.64 791.24 1504.66 792.392C1502.68 793.48 1500.5 795.112 1498.13 797.288C1498.71 799.08 1499 801.352 1499 804.104V828.488L1506.2 829.064C1506.45 831.688 1505.59 833 1503.6 833H1485.36V832.232C1485.36 830.696 1485.81 829.736 1486.71 829.352C1487.16 829.096 1487.7 828.936 1488.34 828.872L1492.28 828.68V804.68C1492.28 800.072 1491.25 796.584 1489.2 794.216C1487.22 791.848 1484.44 790.664 1480.85 790.664C1478.36 790.664 1476.15 791.176 1474.23 792.2C1472.31 793.224 1470.26 794.728 1468.08 796.712V828.488L1475.38 829.064C1475.64 831.688 1474.74 833 1472.69 833H1454.45V832.232C1454.45 830.696 1454.9 829.736 1455.8 829.352C1456.24 829.096 1456.79 828.936 1457.43 828.872L1461.46 828.68V790.568L1457.24 790.472C1455.19 790.472 1454.16 789.096 1454.16 786.344L1466.55 784.712L1467.7 791.432H1467.99C1472.28 786.888 1477.08 784.616 1482.39 784.616C1485.27 784.616 1488.02 785.32 1490.64 786.728C1493.27 788.136 1495.28 790.344 1496.69 793.352C1498.93 790.728 1501.3 788.616 1503.8 787.016C1506.36 785.416 1509.65 784.616 1513.68 784.616C1517.72 784.616 1521.36 786.184 1524.63 789.32C1527.89 792.456 1529.52 797.384 1529.52 804.104V828.488L1536.82 829.064C1537.08 831.688 1536.18 833 1534.13 833ZM1580.37 807.752H1550.23C1550.17 808.392 1550.13 809.384 1550.13 810.728C1550.13 816.168 1551.29 820.584 1553.59 823.976C1555.89 827.304 1559.48 828.968 1564.34 828.968C1569.21 828.968 1573.85 827.24 1578.26 823.784C1579.03 824.424 1579.41 825.224 1579.41 826.184C1579.41 827.976 1577.65 829.8 1574.13 831.656C1570.68 833.512 1566.77 834.44 1562.42 834.44C1556.47 834.44 1551.7 832.488 1548.12 828.584C1544.6 824.68 1542.84 818.728 1542.84 810.728C1542.84 802.728 1544.95 796.392 1549.17 791.72C1553.4 786.984 1558.39 784.616 1564.15 784.616C1569.91 784.616 1574.07 786.44 1576.63 790.088C1579.19 793.736 1580.44 798.088 1580.37 803.144V807.752ZM1573.37 803.432C1573.37 799.144 1572.53 795.752 1570.87 793.256C1569.21 790.696 1566.77 789.416 1563.57 789.416C1560.44 789.416 1557.75 790.664 1555.51 793.16C1553.27 795.656 1551.7 799.08 1550.81 803.432H1573.37Z" fill="#443C3C"/>
<defs>
<filter id="filter0_bd" x="479.871" y="-3.24475" width="1274.26" height="955.745" filterUnits="userSpaceOnUse" color-interpolation-filters="sRGB">
<feFlood flood-opacity="0" result="BackgroundImageFix"/>
<feGaussianBlur in="BackgroundImage" stdDeviation="2"/>
<feComposite in2="SourceAlpha" operator="in" result="effect1_backgroundBlur"/>
<feColorMatrix in="SourceAlpha" type="matrix" values="0 0 0 0 0 0 0 0 0 0 0 0 0 0 0 0 0 0 127 0"/>
<feOffset dy="4"/>
<feGaussianBlur stdDeviation="2"/>
<feColorMatrix type="matrix" values="0 0 0 0 0 0 0 0 0 0 0 0 0 0 0 0 0 0 0.25 0"/>
<feBlend mode="normal" in2="effect1_backgroundBlur" result="effect2_dropShadow"/>
<feBlend mode="normal" in="SourceGraphic" in2="effect2_dropShadow" result="shape"/>
</filter>
<filter id="filter1_d" x="0" y="336" width="1058" height="1058" filterUnits="userSpaceOnUse" color-interpolation-filters="sRGB">
<feFlood flood-opacity="0" result="BackgroundImageFix"/>
<feColorMatrix in="SourceAlpha" type="matrix" values="0 0 0 0 0 0 0 0 0 0 0 0 0 0 0 0 0 0 127 0"/>
<feOffset dy="4"/>
<feGaussianBlur stdDeviation="2"/>
<feColorMatrix type="matrix" values="0 0 0 0 0 0 0 0 0 0 0 0 0 0 0 0 0 0 0.25 0"/>
<feBlend mode="normal" in2="BackgroundImageFix" result="effect1_dropShadow"/>
<feBlend mode="normal" in="SourceGraphic" in2="effect1_dropShadow" result="shape"/>
</filter>
<linearGradient id="paint0_linear" x1="1117" y1="-11" x2="1117" y2="1263" gradientUnits="userSpaceOnUse">
<stop stop-color="white"/>
<stop offset="1" stop-color="white" stop-opacity="0"/>
</linearGradient>
</defs>
</svg>
